<svg width="16" height="16" viewBox="0 0 16 16" fill="none" xmlns="http://www.w3.org/2000/svg">
<path d="M14.3335 8.00004C14.3335 11.4826 11.4827 14.3334 8.00016 14.3334C4.51759 14.3334 1.66683 11.4826 1.66683 8.00004C1.66683 4.51747 4.51759 1.66671 8.00016 1.66671C11.4827 1.66671 14.3335 4.51747 14.3335 8.00004Z" stroke="#303133" stroke-width="0.666667"/>
<path d="M6.5335 7.98004C6.5335 7.98004 7.98016 6.83337 8.50683 6.78671C9.00016 6.74671 8.90016 7.31337 8.8535 7.60671L8.84683 7.64671C8.7535 8.00004 8.64016 8.42671 8.52683 8.83337C8.2735 9.76004 8.02683 10.6667 8.08683 10.8334C8.1535 11.06 8.56683 10.7734 8.86683 10.5734C8.90683 10.5467 8.94016 10.52 8.9735 10.5C8.9735 10.5 9.02683 10.4467 9.08016 10.52C9.0935 10.54 9.10683 10.56 9.12016 10.5734C9.18016 10.6667 9.2135 10.7 9.1335 10.7534L9.10683 10.7667C8.96016 10.8667 8.3335 11.3067 8.08016 11.4667C7.80683 11.6467 6.76016 12.2467 6.92016 11.08C7.06016 10.26 7.24683 9.55337 7.3935 9.00004C7.66683 8.00004 7.78683 7.54671 7.1735 7.94004C6.92683 8.08671 6.78016 8.18004 6.6935 8.24004C6.62016 8.29337 6.6135 8.29337 6.56683 8.20671L6.54683 8.16671L6.5135 8.11337C6.46683 8.04671 6.46683 8.04004 6.5335 7.98004Z" fill="#303133"/>
<path d="M8.20016 4.86004C8.3335 4.74004 8.4935 4.66671 8.66683 4.66671C8.84683 4.66671 9.00016 4.74004 9.14016 4.86004C9.26683 5.00004 9.3335 5.16004 9.3335 5.33337C9.3335 5.51337 9.26683 5.66671 9.14016 5.80671C9.00016 5.93337 8.84683 6.00004 8.66683 6.00004C8.4935 6.00004 8.3335 5.93337 8.20016 5.80671C8.0735 5.66671 8.00016 5.51337 8.00016 5.33337C8.00016 5.16004 8.0735 5.00004 8.20016 4.86004Z" fill="#303133"/>
</svg>
