<svg width="16" height="16" viewBox="0 0 16 16" fill="none" xmlns="http://www.w3.org/2000/svg">
<path d="M13.029 10.2041L10.6956 9.20405C10.5959 9.16157 10.4851 9.15262 10.3799 9.17855C10.2747 9.20447 10.1808 9.26387 10.1123 9.34781L9.07891 10.6103C7.45716 9.84569 6.15202 8.54055 5.38738 6.9188L6.64991 5.88545C6.73401 5.81705 6.79353 5.72311 6.81947 5.61785C6.84541 5.5126 6.83635 5.40176 6.79366 5.30211L5.79364 2.96873C5.74679 2.86132 5.66392 2.77362 5.55934 2.72075C5.45475 2.66789 5.33499 2.65317 5.22071 2.67915L3.05401 3.17915C2.94384 3.2046 2.84554 3.26663 2.77516 3.35513C2.70478 3.44364 2.66648 3.55338 2.6665 3.66645C2.6665 9.0103 6.99783 13.3333 12.3333 13.3333C12.4464 13.3334 12.5562 13.2951 12.6448 13.2247C12.7333 13.1543 12.7954 13.056 12.8208 12.9458L13.3209 10.7791C13.3467 10.6642 13.3316 10.544 13.2784 10.4391C13.2251 10.3341 13.1369 10.251 13.029 10.2041Z" fill="#606266"/>
</svg>
