<svg width="16" height="16" viewBox="0 0 16 16" fill="none" xmlns="http://www.w3.org/2000/svg">
<path d="M2.6665 4.67212L4.49204 4.67216C4.55201 7.72359 5.89781 9.01611 6.96382 9.28262V4.67212H8.68275V7.30381C9.73542 7.19056 10.8414 5.9913 11.2145 4.67212H12.9334C12.7928 5.35627 12.5125 6.00405 12.1101 6.57495C11.7078 7.14586 11.1919 7.6276 10.5949 7.99006C11.2615 8.32101 11.8503 8.78968 12.3223 9.36508C12.7944 9.94049 13.1389 10.6095 13.3332 11.328H11.441C11.2667 10.7039 10.9119 10.1453 10.4212 9.7221C9.93044 9.29894 9.32567 9.03016 8.68275 8.94947V11.328H8.4762C4.83183 11.328 2.75313 8.82954 2.6665 4.67212Z" fill="#606266"/>
</svg>
