<svg width="16" height="16" viewBox="0 0 16 16" fill="none" xmlns="http://www.w3.org/2000/svg">
<path d="M11.7787 4.21865C11.2873 3.72475 10.702 3.33315 10.0569 3.06668C9.41175 2.80022 8.71977 2.66424 8.02128 2.66666C5.09464 2.66666 2.70939 5.03998 2.70939 7.95197C2.70939 8.88531 2.95595 9.79197 3.41692 10.592L2.6665 13.3333L5.48057 12.5973C6.25779 13.0186 7.13149 13.2426 8.02128 13.2426C10.9479 13.2426 13.3332 10.8693 13.3332 7.95731C13.3332 6.54398 12.7811 5.21598 11.7787 4.21865ZM8.02128 12.3466C7.22798 12.3466 6.45076 12.1333 5.77002 11.7333L5.60922 11.6373L3.93686 12.0746L4.38175 10.4533L4.27454 10.288C3.8338 9.58769 3.59978 8.77824 3.59917 7.95197C3.59917 5.53065 5.58242 3.55732 8.01592 3.55732C9.19515 3.55732 10.3047 4.01599 11.1355 4.84798C11.5469 5.25543 11.8729 5.74007 12.0947 6.27381C12.3164 6.80755 12.4295 7.37977 12.4273 7.95731C12.438 10.3786 10.4548 12.3466 8.02128 12.3466ZM10.4441 9.06131C10.3101 8.99731 9.65612 8.67731 9.5382 8.62931C9.41491 8.58664 9.32915 8.56531 9.23803 8.69331C9.14691 8.82664 8.89498 9.12531 8.81994 9.21064C8.74489 9.3013 8.66449 9.31197 8.53049 9.24264C8.39649 9.17864 7.96768 9.03464 7.46382 8.58664C7.06717 8.23464 6.80453 7.80264 6.72412 7.66931C6.64908 7.53598 6.7134 7.46664 6.78309 7.39731C6.84205 7.33864 6.91709 7.24264 6.98141 7.16798C7.04573 7.09331 7.07253 7.03464 7.11542 6.94931C7.1583 6.85864 7.13686 6.78398 7.10469 6.71998C7.07253 6.65598 6.80453 6.00531 6.69732 5.73865C6.59012 5.48265 6.47756 5.51465 6.39716 5.50932H6.13987C6.04875 5.50932 5.90938 5.54132 5.7861 5.67465C5.66818 5.80798 5.32513 6.12798 5.32513 6.77865C5.32513 7.42931 5.80218 8.05864 5.8665 8.14397C5.93083 8.23464 6.80453 9.56797 8.13384 10.1386C8.45009 10.2773 8.69665 10.3573 8.88962 10.416C9.20587 10.5173 9.49531 10.5013 9.7258 10.4693C9.98309 10.432 10.5137 10.1493 10.6209 9.83997C10.7335 9.53064 10.7335 9.2693 10.696 9.21064C10.6585 9.15197 10.5781 9.1253 10.4441 9.06131Z" fill="#606266"/>
</svg>
