<svg width="16" height="16" viewBox="0 0 16 16" fill="none" xmlns="http://www.w3.org/2000/svg">
<path fill-rule="evenodd" clip-rule="evenodd" d="M8.00016 1.33333C11.6868 1.33333 14.6668 4.31333 14.6668 8C14.6668 11.6867 11.6868 14.6667 8.00016 14.6667C4.3135 14.6667 1.3335 11.6867 1.3335 8C1.3335 4.31333 4.3135 1.33333 8.00016 1.33333ZM8.00016 7.06L9.9235 5.13666C10.1831 4.87709 10.6039 4.87709 10.8635 5.13666C11.1231 5.39624 11.1231 5.81709 10.8635 6.07666L8.94016 8L10.8635 9.92333C11.1231 10.1829 11.1231 10.6038 10.8635 10.8633C10.6039 11.1229 10.1831 11.1229 9.9235 10.8633L8.00016 8.93999L6.07683 10.8633C5.81726 11.1229 5.3964 11.1229 5.13683 10.8633C4.87726 10.6038 4.87726 10.1829 5.13683 9.92333L7.06016 8L5.13683 6.07666C4.87726 5.81709 4.87726 5.39624 5.13683 5.13666C5.3964 4.87709 5.81726 4.87709 6.07683 5.13666L8.00016 7.06Z" fill="#EB5757"/>
<path d="M10.8635 5.13666C10.6039 4.87709 10.1831 4.87709 9.9235 5.13666L8.00016 7.06L6.07683 5.13666C5.81726 4.87709 5.3964 4.87709 5.13683 5.13666C4.87726 5.39624 4.87726 5.81709 5.13683 6.07666L7.06016 8L5.13683 9.92333C4.87726 10.1829 4.87726 10.6038 5.13683 10.8633C5.3964 11.1229 5.81726 11.1229 6.07683 10.8633L8.00016 8.93999L9.9235 10.8633C10.1831 11.1229 10.6039 11.1229 10.8635 10.8633C11.1231 10.6038 11.1231 10.1829 10.8635 9.92333L8.94016 8L10.8635 6.07666C11.1231 5.81709 11.1231 5.39624 10.8635 5.13666Z" fill="white"/>
</svg>
